<?xml version="1.0" encoding="utf-8"?>
<!-- Generator: Adobe Illustrator 19.0.0, SVG Export Plug-In . SVG Version: 6.00 Build 0)  -->
<svg version="1.1" id="Layer_1" xmlns="http://www.w3.org/2000/svg" xmlns:xlink="http://www.w3.org/1999/xlink" x="0px" y="0px"
	 viewBox="0 0 545.3 545.3" style="enable-background:new 0 0 545.3 545.3;" xml:space="preserve">
<style type="text/css">
	.st0{stroke:#000000;stroke-miterlimit:10;}
	.st1{fill:#FFFFFF;stroke:#000000;stroke-miterlimit:10;}
</style>
<circle id="XMLID_9_" class="st0" cx="272.9" cy="272.8" r="271.8"/>
<path id="XMLID_6_" class="st1" d="M382.2,271.1l83-0.1c0,0,0-0.1,0-0.1l-8.1-54.5c0-0.1,0-0.1-0.1-0.2
	C433.1,136.9,359.4,79,272.2,79S111.2,136.9,87.3,216.3l0,0.1l-3.2,11.8l-3,43.9c0,106.6,85.4,193.1,192.1,193.1
	c79.2,0,146.7-47.7,176.5-115.9l-73.2-42.2c-14.9,43.2-56.1,74.3-104.4,74.3c-60.9,0-110.3-49.3-110.4-110.1l152.4-0.1L382.2,271.1z
	 M271.9,160.9c41,0,76.8,23.6,95.8,55.6H176.1C195.1,184.5,230.9,160.9,271.9,160.9z"/>
</svg>
