<?xml version="1.0" encoding="utf-8"?>
<!-- Generator: Adobe Illustrator 19.2.0, SVG Export Plug-In . SVG Version: 6.00 Build 0)  -->
<svg version="1.1" id="Layer_1" xmlns="http://www.w3.org/2000/svg" xmlns:xlink="http://www.w3.org/1999/xlink" x="0px" y="0px"
	 viewBox="0 0 600 600" style="enable-background:new 0 0 600 600;" xml:space="preserve">
<style type="text/css">
	.st0{fill:#FFFFFF;}
</style>
<path d="M178.8,1.6c97.1,0,194.2,0,291.2,0c4.9,5.5,9.7,11,14.6,16.5c1.3,1.4,2.5,2.9,3.7,4.4c-0.7,0.6-1.3,1.2-2,1.8
	c-3-2.5-6-4.9-10.5-8.7c0.7,4.5,0.9,9.7,1.7,9.8c7.8,0.9,5.2,5.5,4.6,10.1c-0.2,1.6,2.1,3.6,3.4,5.7c1.3-1.8,2-2.6,2.7-3.6
	c-0.4,4.4-0.8,8.2-0.9,12.1c-0.1,2,0.5,3.9,0.8,5.9c0.2,1.4-0.3,3.5,0.4,4.1c0.9,0.7,2.9,0.5,4.2,0c1.4-0.5,2.3-2,3.6-2.8
	c2.5-1.6,5-3,7.5-4.5c1.5,2.7,3,5.5,4.6,8.2c0.5,0.8,1.1,1.5,2.1,2.9c4-4.5,7.5-8.5,11.9-13.4c1.7,18.4,18.5,13.2,28.4,20.2
	c-2.9,7.9-11.3,8.3-17.9,10.1c-1.9,0.5-5.5-5.3-8.4-8.4c-0.7,2.7-1.6,6.3-2.9,11.1c2.9,0.4,5.9,0.8,8.7,1.2c0.7,3.7,1.5,8,2.3,12.2
	c-2.7,0.6-4.5,1.1-7.9,1.9c3,3.9,5.1,6.8,8.2,10.8c1.9-6.2,3.2-10.3,4.5-14.5c3,4.7,5.7,8.9,8.4,13.4c-0.7,0.9-1.9,2.5-2,2.6
	c3,5.6,5.4,10.1,8.7,16c-4.1-2.5-6.7-4.1-7.6-4.7c-5.5,2.8-9.5,4.8-14.7,7.4c3.8,3.4,7.3,6.5,11.1,10c4.7-3.4,9.1-6.6,14.3-10.4
	c3.3,4.9,6.7,10.1,10.2,15.3c-0.8,0.6-1.6,1.1-2.5,1.7c-1.9-2.8-3.4-7.2-5.9-7.9c-3.7-1.1-9.3-0.9-12,1.3c-5.1,4.1-1.4,9.8,1.4,13.8
	c1.6,2.2,6,2.5,10.6,4.2c-1.6-4.7-2.3-6.9-3.1-9.2c0.8-0.4,1.6-0.9,2.4-1.3c3.1,5.1,6.1,10.2,9.2,15.3c-0.9,0.1-1.8,0.1-2.6,0.2
	c-0.1,2.2-1.2,5.3-0.2,6.5c3.5,4.2,8.3,7.4,11.6,11.8c1,1.4-0.8,5.2-1.8,7.7c-0.8,1.9-2.3,3.5-3.5,5.2c0.6,0.4,1.2,0.9,1.8,1.3
	c2.2-0.7,4.3-1.4,6.8-2.2c0,5.9,0,10.9,0,15.7c-2.6-1.1-4.6-2.6-6.3-2.4c-1,0.1-1.9,3-2.4,4.8c-1.6,5.6-3.4,11.2-4.3,17
	c-0.2,1.5,2.4,3.4,3.9,5.5c-2.7,14.9-5.7,31.1-8.8,48.1c0.6,0-1-0.1-2.5-0.1c-1.2,0.2-2.4,0.5-3.5,0.7c14.7,5.6-0.2,13.3,4.8,19
	c-2.6,1.8-4.9,3.4-7.3,5c0.9,0.2,1.7,0.5,2.6,0.7c0.3,2.5,1.6,5.3,0.7,7.3c-2.5,5.9-2.6,10.5,4.2,13.3c0.7,0.3,1,1.6,1.5,2.4
	c-1.7,1.8-3.1,3.4-4.5,4.9c2.1,3,3.9,5.6,6.5,9.5c-3.1-1.3-4.4-1.8-5.7-2.3c-4.1,6-3.2,11.3,0.5,16.7c3,4.5,3,8.3-3.3,10
	c-1.9,0.5-3.4,2-3.6,2.1c-4.4-2-7.5-3.3-10.5-4.7c-2.4,5.4-6.7,10.3-5.7,13.8c2.6,9.1-4.5,11.3-8.7,15.7c-0.8,0.9-2.3,1.3-2.8,2.3
	c-8.3,15.3-21.4,23.2-38.3,25.2c-7,0.8-13,2.4-17.5,8.5c-2.8,3.9-6.6,8.7-10.8,9.7c-15.8,3.8-27.6,16.4-44.4,18.3
	c-9.1,1-11.6,15.1-4.1,20.5c8.6,6.2,18,11.2,26.9,16.9c5.2,3.4,10.3,7.1,15.3,10.8c2.4,1.8,4.3,4.6,6.9,6
	c13.4,7.4,22.4,19.2,31,31.2c2.8,4,3.7,9.4,5.5,14.1c-1,0.5-1.9,1-2.9,1.5c-1.9-3.7-3.8-7.5-5.8-11.2c-0.8-1.5-1.1-3.4-2.3-4.4
	c-10.2-8.6-20.5-16.9-30.7-25.5c-7.2-6-12.2-6.3-17.6-0.3c8.7,7.2,7.9,15.7,3.5,24c-7-2.9-13.8-5.7-20.9-8.7c-1.7,5.1-2.3,8,3.4,8
	c1.4,0,4.2,3.7,3.9,4.3c-2.7,5-0.4,10.7-1.7,14.9c-2.3,7.3-3.1,13.9-1.5,21.2c0.6,2.9,1.1,7.7-0.4,8.8c-6.3,4.4-1.5,6.2,1.8,8.7
	c-1.1,0.3-1.8,0.7-2.5,0.7c-37.8,0.1-75.7,0.2-113.5,0.2c-1.3,0-3,0.2-3.8-0.5c-7.5-6.2-15.2-2.7-22.9-0.8
	c-7.5,1.9-14.5,2.2-19.2-5.6c-3.2-5.2-7.1-10-9.9-15.4c-5.4-10.2-4.9-11.3,6.5-18.1c-4.4-4.5-8.5-8.6-11.2-11.4
	c1.2-11.2-7.5-18.6-7.4-28.6c7.5-0.5,9.4-3.6,4.2-10.2c-1.1-1.3,0.3-4.6,0.3-4.9c-10.6-9.7-20.5-18.3-29.8-27.4
	c-5-4.8-12.4-5.6-14.2-0.1c-3.6,11.3-7.1,22.7-9,34.4c-1.4,8.6-0.2,17.7-0.5,26.6c-0.1,1.9-0.8,4.5-2.2,5.7c-5,4.1-2.8,8.4-1.3,14.2
	c1.6-2.3,2.5-3.5,3.5-4.9c1,3,2.6,5.6,2.5,8.1c-0.1,3.1-1.1,6.3-2.5,9.1c-0.5,1.1-3.3,1-5.1,1.5c0.9,2.3,1.5,4.9,2.9,6.9
	c1.4,2,3.6,3.5,5.4,5.2c-0.2,0.4-0.4,0.9-0.6,1.3c-4.1-0.8-8.2-1.6-13-2.5c-0.5,5.3-1,10.5-1.7,17.5c-2.7-3.9-5.7-6.2-5.7-8.5
	c-0.1-12.2-0.9-24.7,1.3-36.7c2.5-13.6-1.3-24.9-6.2-37.3c-7.4,6.6-15.7,3.3-23.4-8.1c-0.6,0.4-1.2,0.9-1.9,1.2
	c-8.1,3.3-10.2,7.7-6.3,16.5c2.8,6.2,2,14.1,2.8,21.2c-1,0.2-2.1,0.5-3.1,0.7c-4.2-12.8-8.5-25.6-13-39.3c8.8,1.6,12-2.5,13.2-10
	c2,3.1,3.2,5,4.4,6.9c0.7-0.1,1.3-0.2,2-0.2c-4.2-16.2-2.3-31.2,7.4-44.8c1.2,5,1.1,10.1,1.9,15c1.6,9.9,2.2,10.5,8.1,12.5
	c-1.6-2.7-2.9-4.7-3.1-5c1-5.3,1.7-9,2.4-12.7c0.3,0.1,1.6,0.7,4.6,2c-2.5-5.5-4.4-9.6-6.5-14.1c2.3-1.5,4.7-3,7.3-4.7
	c-7.6-5.1-10.2-18.9-22-11.7c-4.8-4-9-7.5-13-10.9c-3,1.7-5.4,3.1-8.8,5c1.8-2.6,2.9-4.1,3.8-5.4c-5.2-0.6-10.3-2.5-14.5-1.3
	c-7.5,2.1-10.5-1.5-13.3-7.7c4-1.7,7.9-3.2,12.2-5c-1.5-2-2.7-3.6-4.7-6.3c2.9,0,4.5,0,6.2,0c0.4-0.8,0.8-1.6,1.2-2.4
	c-2.8-2-5.6-4-9.6-6.9c0-0.6,0-3.6,0-6.7c-3.3-0.6-6.3-1.2-10.2-1.9c0.3-3.4,0.6-6.6,1-10.5c-0.9-0.2-2.9-0.8-5-1.3
	c0.9-2,1.5-3.3,1.8-3.8c-4.1-2.5-8.1-4.3-11.2-7.1c-3.5-3-6.7-6.6-9.1-10.5c-1.6-2.6-2.1-6.2-2.4-9.4c-0.2-2.2,0.8-4.4,1.3-6.6
	c-2.4-0.2-4.7-0.4-8-0.7c1,4.4,1.7,7.6,2.5,10.7c-2.3-3.1-3.2-7-5.7-9.3c-6.7-6.3-7-18.4-18.3-20.5c-4.2-0.8-8.4-3-6.5-7.5
	c1.3-3.1,5.6-5,8.6-7.4c0.5,0.5,0.9,1,1.4,1.5c-0.3-4.1-0.5-8.3-0.9-13.8c-4.3,5.9-7.8,10.7-11.7,16.1c-4-5.6-5.9-9.5,0.5-13.4
	c0.1,2.5,0.2,4.3,0.3,6c0.7,0.1,1.4,0.3,2.1,0.4c2.6-7.7,5.1-15.5,7.2-21.8c2.9-1.9,5.2-3.4,7.6-4.9c-0.3-1-0.6-2-1-3.1
	c-8,0.7-16.1,1.3-24.1,2.4c-1.4,0.2-2.6,2.3-3.5,3.1c1.3,3.9,2.4,7.3,3.5,10.6c-6.9-5.3-9.5-20.8-4.5-25.6c4.8-4.7,5.4-9.5,6-15.2
	c0.2-1.9,1.5-3.7,2.1-5.1c4,0.3,7.2,0.6,10.4,0.9c1.3,2.3,2.7,4.7,4.1,7.2c2-2,2.7-3.7,2.1-4.5c-3.8-5.6-7.9-11.1-11.8-16.4
	c1.2-7,2.8-14,3.6-21.1c1.1-9.8,12.2-18.5,21.2-16.7c1.9-2.3,3.6-4.3,6.2-7.6c-0.3-3.3-0.7-8.5-1.1-12.6c2.3-3.6,5.2-6.8,6.3-10.6
	c0.6-2.1-1.8-5.1-2.9-7.6c-1.1,1-2.2,2-3.3,3c-0.6,1.5-1.2,2.9-2.1,5.1c-2.8-4-5.2-7.3-8-11.4c-4.7,4-9,7.7-13.4,11.4
	c-0.6-0.5-1.2-1-1.8-1.5c6.9-6,12.8-12.6,11.5-22.5c2.4-0.4,4.9-0.7,6.6-1c0-13.3,0-26.1,0-40.2c5.5,3.4,8.9,5.5,12.2,7.6
	c1.5-2.1,2.4-3.4,2.8-4c3.1,2.6,5.7,4.8,9.8,8.3c-7.4,0-12.3,0-18.1,0c1.6,3.9,1.8,7.4,3.6,8.5c4,2.6,8.9,5.8,13.1,5.5
	c4.8-0.3,5.1-5.9,4.6-10.5c-0.3-3.2,0.3-6.4,0.5-10.3c-7.6,3.4-6.7-4.1-9.6-6.9c-0.1-0.1,0.4-0.9,0.9-1.8c1.8,0.2,3.9,0.4,6.9,0.7
	c-0.8-6.3-1.5-11.9-2.3-17.8c-2.5,0.2-4.2,0.3-6.7,0.5c2.5-6.4-1.1-6.4-8.3-3.8c3.2-4.6,4.4-7,6.2-8.8c3-3,8.1-5.1,9.4-8.7
	c3.3-8.9,8-15.5,16.3-21c7.3-4.9,15.5-5.1,21.2-3.1c8.7,3.1,8-0.5,7.7-6.1c6.2,1.5,16.4-4.6,16.9-9.1c2.4,0.5,6.7,1.9,7.1,1.3
	c2.7-5,5.7-0.8,8.3-0.6c1.4,0.1,2.8,1.4,4.1,2.1c0.3-0.5,0.7-1,1-1.5c-2.6-2.1-5.1-4.2-8.3-6.9c6.2,0.4,12.2,0.4,16.8-3.8
	C172.2,8.6,175.4,5,178.8,1.6z M264.7,254c-3.1,1.9-6.2,3-8.3,5.1c-10.8,10.5-23.6,15.4-38.5,14.6c-1.9-0.1-5.2-0.7-5.5-1.8
	c-3-10-8.4-5.3-13.3-1.9c-2.8-3.1-5.2-5.9-7.7-8.7c-0.9,0.1-1.8,0.1-2.7,0.2c-2.1,16.4-4.6,32.7-5.9,49.1c-0.3,4.1,2,9.6,5,12.6
	c5.4,5.6,12.4,9.6,18.3,14.8c1.5,1.3,1.3,4.6,1.5,7c0.1,1.1-1.4,2.2-1.3,3.3c0.4,8.5,0.9,17,1.4,25.6c-0.9-0.3-1.8-0.7-2.7-1
	c-1.9,2.5-5.4,5.1-5.2,7.5c0.2,4,2.7,7.9,4.1,11.5c-3.1,1.7-5.5,3.1-8.9,5c7.9,5.2,12.6,8.3,17.3,11.5c0.8-0.4,1.5-0.8,2.3-1.3
	c-1.4-6.4-2.8-12.7-4.1-19.1c8.1,0.7,3.7,15.5,14.7,10.9c0.4,2.2,0.7,4,1,5.8c3.1-2.8,5.9-6.4,5.2-9c-2-6.8,0.1-12,3.5-17.4
	c1.8-2.7,2.6-6.1,4.5-8.8c6.4-9.2,11.4-19.7,22.8-24.8c-3.7,7.5-7.4,14.9-11.1,22.4c0.6,0.5,1.2,1,1.7,1.5
	c10.6-10.3,24.4-12.2,37.7-15.1c3.2-0.7,7.6,1.3,9.8-0.3c7.5-5.4,15-9.4,24.9-7.2c-3.6-3.4-7.6-5.4-10.7-8.4
	c-2.4-2.3-7.3-5.6-0.4-9.2c-12.4-7.7-24.9-11.4-39.1-4.7c-2.6,1.2-9.2,0.1-9.7-1.3c-1.7-5.1-11.1-11.1-1.2-16.2
	c7.9-4,16.9-5.7,25.2-9c6.3-2.4,12.6-5.1,18.3-8.7c5.4-3.5,8.7-2.9,10,3.6c1,5.3,4.3,6.9,9,6.1c2.7-0.4,5.2-1.6,7.7-2.4
	c3.5,10.3,6.9,20.3,10.2,30.2c0.4,1.2,0.9,2.6,0.7,3.8c-1.9,10,5,12.9,14.3,16.9c0.5-4.9,0.8-8.8,1.5-12.7c0.4-2.4,0.8-5.1,2-7.2
	c2.5-4.2,5.5-8,8.4-11.9c0.2,0.7,0.4,1.3,0.6,2c1.5-0.4,3.9-0.4,4.4-1.4c3.4-5.8,7.1-11.7,9.2-18c0.9-2.8-0.8-8.1-3.1-9.8
	c-7.9-5.7-14.6-13.8-25.7-14c-3.3-0.1-6.7-2.3-8.5-3c0-3.9,1-7.4-0.2-8.7c-3.1-3.3-7.2-5.7-11.4-8.8c-0.6,0.4-1.6,1.8-3,2.2
	c-2.6,0.9-5.3,1.3-8,1.7c-0.2,0-1.3-2.6-0.9-3.2c1.8-2.5,3.7-6,6.2-6.7c6.4-1.9,13.1-2.9,19.8-3.6c4.1-0.4,8.4,0.5,12.6,0.8
	c0.2-0.6,0.4-1.3,0.6-1.9c-3.3-1.7-6.5-3.4-11-5.7c4.6,0.2,7.8,1,10.7,0.4c3.2-0.7,6.2-2.7,9.2-4.2c-2-2.8-3.4-7.1-6-8
	c-16.6-6.2-33.8-6.6-43.2,14.4c-0.6,1.4-0.9,3.2-1.9,4.3c-5.2,5.7-3.5,10.9-0.4,17.1c4.1,8.1,6.8,17,10.4,26.5
	c-13.4-4.5-18.5-10.1-15.7-19.1c2.4-7.8-0.6-13.7-3.4-20c-3.3-7.4-7.2-14.4-10-21.9c-0.9-2.4,0.2-6.9,2-8.5
	c6-5.1,12.8-9.3,19.3-13.8c9.6-6.8,19.5-8.7,30.4-3c2.6,1.4,5.9,1.5,9.7,2.4c-3.4-9.8-42.3-43.2-47.5-41.7c0,1.9,0,3.9,0,6
	c-8.4,2.4-15.2,10.4-24.8,6.8c-2.9,2-6,3-9.2,3.8c-8.3,2.2-16.4,4.3-23.8-2.9c-3-2.9-7.2-6.1-10.9-6.2c-4.5-0.1-9,3-13.5,4.7
	c0.3-2.1,0.6-4.8,0.8-6c-4.4,2.4-8.7,5-13.2,7.1c-2.9,1.4-3.9,2.6-4.9,6.3c-1.9,7.2-6.3,13.8-10.3,20.3c-2.8,4.6-6.6,8.6-9.9,12.8
	c0.7,0.6,1.5,1.3,2.2,1.9c2.2-2.6,4.1-5.5,6.8-7.6c3.7-2.8,7.7-6.2,11.9-6.8c6.4-0.9,13.1,0.1,19.6,0.9c13.4,1.7,30.1-10,39.6,9.2
	c0.6,1.3,4.1,1,5.6,2.2c1.6,1.2,3.8,4.2,3.3,5c-3.3,5.7-6.9,11.3-11.2,16.4C270,241.1,262.9,244.9,264.7,254z M304.5,449.3
	c0.4,0.9,0.8,1.8,1.2,2.6c2.8-2.1,6.6-3.6,8.1-6.3c1.2-2.1,0.6-7-1.1-8.6c-7.5-6.9-16.2-12.1-27-10.2c-12.7,2.3-25.3,5.1-37.9,7.8
	c-7.4,1.6-10,6.8-7.4,14c2.1,5.7,15.3,14.4,21.2,13.8c1.4-0.1,3.5-1,3.8-2c2.6-7.4,7.4-7.1,13.7-5.3c3.2,0.9,7.1-0.8,10.6-1.6
	C294.7,452.2,299.6,450.7,304.5,449.3z M323.5,379.1c-3.4-0.2-5.9-0.3-8.4-0.5c-6.2-0.3-13,0.8-18.6-1.2c-9-3.2-17.7-2.6-26,0
	c-9.5,3-20.7,4-26.3,13.8c-2,3.4-1.5,8.9-0.5,13c0.3,1.3,5.8,2.5,8.6,2.1c6.3-0.9,12.4-2.9,18.6-4.3c9.5-2.1,18.9-5.1,28.5-5.7
	C309,395.7,318.9,390.3,323.5,379.1z M194.1,236.7c1.3,1.4,2.3,2,2.7,2.9c3.3,8.5,4.1,8.7,12.5,4c4-2.3,8.4-4,12.6-5.9
	c-3.9,5.9-12.4,6.9-12.9,14.3c11.8-4.5,23.6-9,36.3-13.8c-3.9-1-7.4-1.8-12.6-3.1c6-0.8,10.4-1,14.6-2.1c1.8-0.5,4.3-2.6,4.5-4.3
	c0.3-2.1-0.9-5.1-2.5-6.5c-2.1-1.7-5.2-2.5-7.9-2.9c-9.8-1.5-19.6-2.6-28-3.7C206.1,223.4,200.4,229.8,194.1,236.7z M83.6,64.7
	c1.2,0.2,2,0.4,2.7,0.4c5.5,0.1,13.5,5.2,12.2-7.4c-0.3-2.7,1.5-10.4,9-8c0.6-2.9,1.1-5.4,1.7-8C96.1,41.2,83.2,52.7,83.6,64.7z
	 M425.5,513.9c2-4.8,5.1-10.2,4.3-10.8c-4.6-3.8-10.2-6.5-15.4-9.6c-0.6,0.8-1.2,1.6-1.8,2.4C416.3,501,419.9,506.1,425.5,513.9z
	 M218.5,264.8c10,4.8,19,3.1,27.7-1.6c-0.1-0.7-0.2-1.5-0.3-2.2C236.7,262.2,227.6,263.5,218.5,264.8z M144.7,506
	c6.3-1.9,12.5-7.5,11.4-10.2c-1-2.4-3.9-3.9-7.7-7.3C147,495.5,146,500.3,144.7,506z M255.5,162.4c-0.4,0.8-0.9,1.7-1.3,2.5
	c3.9,2.5,7.8,5,12.1,7.7c0,0,0.7-1.2,1.3-2.5c0.2,0.6,0.5,1.2,0.7,1.8c2.3-0.7,4.6-1.3,6.9-2c-0.2-0.8-0.4-1.6-0.5-2.4
	C268.3,165.9,261.9,164.1,255.5,162.4z M528.3,110.6c-2.8,1-5.7,2-9.4,3.4c1.2,2.8,2.3,5.3,3.4,7.8c2.4-2.7,3.8-5.8,5.5-6.1
	c2.4-0.3,5,1.6,7.6,2.5c0.1-0.3,0.2-0.6,0.4-0.9C533.4,115.1,531,113,528.3,110.6z"/>
<path class="st0" d="M264.7,254c-1.8-9.1,5.3-12.9,9.8-18.3c4.2-5.1,7.8-10.7,11.2-16.4c0.5-0.8-1.8-3.8-3.3-5
	c-1.5-1.2-5-0.9-5.6-2.2c-9.5-19.3-26.1-7.6-39.6-9.2c-6.5-0.8-13.2-1.8-19.6-0.9c-4.2,0.6-8.2,4-11.9,6.8c-2.6,2-4.5,5-6.8,7.6
	c-0.7-0.6-1.5-1.3-2.2-1.9c3.3-4.3,7.1-8.2,9.9-12.8c4-6.5,8.4-13.1,10.3-20.3c1-3.6,2-4.9,4.9-6.3c4.5-2.1,8.8-4.7,13.2-7.1
	c-0.2,1.2-0.5,4-0.8,6c4.5-1.7,9.1-4.8,13.5-4.7c3.7,0.1,8,3.3,10.9,6.2c7.4,7.2,15.5,5.1,23.8,2.9c3.2-0.9,6.3-1.8,9.2-3.8
	c9.6,3.6,16.4-4.4,24.8-6.8c0-2.1,0-4.1,0-6c5.3-1.5,44.2,31.9,47.5,41.7c-3.8-0.9-7.1-1-9.7-2.4c-10.9-5.8-20.8-3.8-30.4,3
	c-6.5,4.6-13.3,8.7-19.3,13.8c-1.8,1.6-2.9,6.1-2,8.5c2.8,7.5,6.7,14.6,10,21.9c2.8,6.3,5.8,12.2,3.4,20
	c-2.8,9.1,2.3,14.7,15.7,19.1c-3.7-9.5-6.3-18.4-10.4-26.5c-3.1-6.2-4.8-11.4,0.4-17.1c1-1.1,1.2-2.8,1.9-4.3
	c9.4-20.9,26.6-20.5,43.2-14.4c2.6,1,4,5.3,6,8c-3.1,1.5-6,3.5-9.2,4.2c-2.9,0.6-6.2-0.2-10.7-0.4c4.5,2.3,7.7,4,11,5.7
	c-0.2,0.6-0.4,1.3-0.6,1.9c-4.2-0.3-8.5-1.2-12.6-0.8c-6.7,0.7-13.4,1.7-19.8,3.6c-2.6,0.8-4.4,4.2-6.2,6.7
	c-0.4,0.6,0.7,3.2,0.9,3.2c2.7-0.4,5.4-0.8,8-1.7c1.4-0.5,2.4-1.8,3-2.2c4.2,3.1,8.4,5.5,11.4,8.8c1.3,1.4,0.2,4.8,0.2,8.7
	c1.8,0.7,5.1,3,8.5,3c11.2,0.2,17.8,8.3,25.7,14c2.3,1.7,4,7.1,3.1,9.8c-2.1,6.3-5.8,12.2-9.2,18c-0.6,1-2.9,1-4.4,1.4
	c-0.2-0.7-0.4-1.3-0.6-2c-2.8,4-5.9,7.8-8.4,11.9c-1.2,2.1-1.6,4.7-2,7.2c-0.6,3.8-0.9,7.7-1.5,12.7c-9.3-4-16.2-6.9-14.3-16.9
	c0.2-1.2-0.3-2.6-0.7-3.8c-3.3-10-6.7-19.9-10.2-30.2c-2.5,0.8-5.1,1.9-7.7,2.4c-4.7,0.8-8-0.8-9-6.1c-1.3-6.5-4.6-7-10-3.6
	c-5.6,3.6-12,6.2-18.3,8.7c-8.3,3.2-17.3,4.9-25.2,9c-9.9,5.1-0.6,11.1,1.2,16.2c0.5,1.5,7.1,2.6,9.7,1.3c14.2-6.7,26.7-3,39.1,4.7
	c-6.8,3.6-2,6.9,0.4,9.2c3.1,3,7.1,4.9,10.7,8.4c-10-2.2-17.5,1.8-24.9,7.2c-2.2,1.6-6.6-0.4-9.8,0.3c-13.3,3-27.1,4.9-37.7,15.1
	c-0.6-0.5-1.2-1-1.7-1.5c3.7-7.5,7.4-14.9,11.1-22.4c-11.5,5.1-16.4,15.6-22.8,24.8c-1.9,2.7-2.7,6-4.5,8.8
	c-3.4,5.4-5.5,10.6-3.5,17.4c0.8,2.6-2.1,6.2-5.2,9c-0.3-1.8-0.6-3.5-1-5.8c-11,4.6-6.7-10.1-14.7-10.9c1.4,6.4,2.8,12.8,4.1,19.1
	c-0.8,0.4-1.5,0.8-2.3,1.3c-4.7-3.1-9.4-6.2-17.3-11.5c3.5-2,5.9-3.3,8.9-5c-1.4-3.6-3.9-7.5-4.1-11.5c-0.1-2.4,3.4-5,5.2-7.5
	c0.9,0.3,1.8,0.7,2.7,1c-0.5-8.5-1.1-17-1.4-25.6c0-1.1,1.4-2.3,1.3-3.3c-0.2-2.4-0.1-5.7-1.5-7c-5.9-5.2-12.9-9.2-18.3-14.8
	c-3-3.1-5.3-8.5-5-12.6c1.3-16.4,3.8-32.7,5.9-49.1c0.9-0.1,1.8-0.1,2.7-0.2c2.5,2.8,4.9,5.6,7.7,8.7c5-3.4,10.3-8.1,13.3,1.9
	c0.3,1.1,3.6,1.7,5.5,1.8c15,0.8,27.7-4.2,38.5-14.6C258.5,257.1,261.6,255.9,264.7,254z M283.8,336.9c-0.1-0.8-0.2-1.6-0.3-2.4
	c-5.1,1.4-10.3,2.7-17.5,4.6C274.5,344.8,278.7,338.2,283.8,336.9z"/>
<path class="st0" d="M304.5,449.3c-4.9,1.4-9.7,2.9-14.7,4.1c-3.5,0.9-7.5,2.5-10.6,1.6c-6.4-1.7-11.2-2-13.7,5.3
	c-0.4,1-2.5,1.9-3.8,2c-6,0.6-19.2-8.2-21.2-13.8c-2.6-7.2,0-12.4,7.4-14c12.6-2.7,25.2-5.5,37.9-7.8c10.8-2,19.5,3.2,27,10.2
	c1.7,1.6,2.3,6.5,1.1,8.6c-1.5,2.8-5.3,4.3-8.1,6.3C305.3,451.1,304.9,450.2,304.5,449.3z"/>
<path class="st0" d="M323.5,379.1c-4.7,11.2-14.5,16.6-24.2,17.2c-9.6,0.6-19,3.6-28.5,5.7c-6.2,1.4-12.3,3.4-18.6,4.3
	c-2.9,0.4-8.3-0.7-8.6-2.1c-0.9-4.2-1.4-9.6,0.5-13c5.6-9.8,16.9-10.8,26.3-13.8c8.3-2.6,17-3.2,26,0c5.6,2,12.3,0.9,18.6,1.2
	C317.6,378.7,320.1,378.9,323.5,379.1z"/>
<path class="st0" d="M194.1,236.7c6.3-7,12-13.3,19.1-21.1c8.4,1.1,18.3,2.2,28,3.7c2.8,0.4,5.9,1.2,7.9,2.9
	c1.6,1.3,2.8,4.4,2.5,6.5c-0.2,1.6-2.7,3.8-4.5,4.3c-4.2,1.1-8.6,1.3-14.6,2.1c5.2,1.3,8.6,2.1,12.6,3.1
	c-12.7,4.8-24.4,9.3-36.3,13.8c0.5-7.4,9-8.4,12.9-14.3c-4.2,2-8.5,3.7-12.6,5.9c-8.4,4.7-9.2,4.5-12.5-4
	C196.4,238.8,195.4,238.2,194.1,236.7z"/>
<path class="st0" d="M83.6,64.7c-0.4-12,12.4-23.5,25.5-22.9c-0.5,2.5-1.1,5-1.7,8c-7.5-2.5-9.3,5.3-9,8c1.3,12.5-6.7,7.5-12.2,7.4
	C85.6,65.1,84.8,64.9,83.6,64.7z"/>
<path class="st0" d="M425.5,513.9c-5.6-7.9-9.2-13-12.8-18.1c0.6-0.8,1.2-1.6,1.8-2.4c5.2,3.1,10.8,5.8,15.4,9.6
	C430.6,503.7,427.5,509.1,425.5,513.9z"/>
<path class="st0" d="M218.5,264.8c9.1-1.3,18.2-2.6,27.4-3.9c0.1,0.7,0.2,1.5,0.3,2.2C237.5,267.9,228.4,269.6,218.5,264.8z"/>
<path class="st0" d="M144.7,506c1.2-5.8,2.2-10.5,3.7-17.5c3.7,3.4,6.7,4.9,7.7,7.3C157.2,498.6,151,504.2,144.7,506z"/>
<path class="st0" d="M255.5,162.4c6.4,1.7,12.8,3.5,19.2,5.2c0.2,0.8,0.4,1.6,0.5,2.4c-2.3,0.7-4.6,1.3-6.9,2
	c-0.2-0.6-0.5-1.2-0.7-1.8c-0.6,1.2-1.3,2.4-1.3,2.5c-4.3-2.7-8.2-5.2-12.1-7.7C254.7,164.1,255.1,163.2,255.5,162.4z"/>
<path class="st0" d="M528.3,110.6c2.7,2.4,5.1,4.5,7.5,6.7c-0.1,0.3-0.2,0.6-0.4,0.9c-2.5-0.9-5.2-2.8-7.6-2.5
	c-1.8,0.2-3.2,3.3-5.5,6.1c-1.1-2.5-2.2-5-3.4-7.8C522.6,112.6,525.5,111.6,528.3,110.6z"/>
<path d="M167.6,600.2c-3.3,0-6.5,0-10.1,0c0.1-1.8,0.3-4.1,0.6-7.2c-1.6,0.6-3.2,0.8-3.3,1.3c-1.7,8.4-8.3,6.8-14,6.8
	c-9.6,0.1-19.3,0-30.9,0c9.5-12.6,18.2-24.2,26.9-35.7c-0.5-0.6-0.9-1.2-1.4-1.8c-16.7,7.7-33.5,15.4-50.1,23.1
	c-0.5-0.8-0.8-1.1-0.8-1.3c2.3-9.6-0.9-18.9-1-28.3c-0.1-8.2,2.7-17,6.4-24.5c4.8-9.7,11.8-18.3,17.5-27.6c5.3-8.5,7.2-9.3,17.6-5.4
	c-1.5,1.9-2.9,3.5-4.1,5.3c-3.4,5.1-4.4,9.8-0.8,15.8c3.8,6.4,6.8,13.5,8.5,20.7c4,16.4,13,29.8,24,42.1
	C157.7,589.1,162.7,594.7,167.6,600.2z"/>
<path d="M492.1,573.8c2.9,12.2,11.4,17.4,22.9,19.5c7.3,1.4,14.5,3.6,21.6,6.2c-17.7,4.7-32.3-4.6-48.7-9.7
	C489.3,584.1,490.7,579,492.1,573.8z"/>
<path d="M450.6,571.1c-1.3-12.2-2.9-25.8-4.4-39.5C450.5,545.3,461.1,558.4,450.6,571.1z"/>
<path d="M283.8,336.9c-5.1,1.3-9.4,7.9-17.8,2.2c7.2-1.9,12.3-3.3,17.5-4.6C283.6,335.3,283.7,336.1,283.8,336.9z"/>
</svg>
